{
  "asset": {
    "version": "2.0",
    "generator": "THREE.GLTFExporter"
  },
  "scenes": [
    {
      "nodes": [
        0
      ],
      "name": "AuxScene"
    }
  ],
  "scene": 0,
  "nodes": [
    {
      "matrix": [
        1,
        0,
        0,
        0,
        0,
        2.220446049250313e-16,
        -1,
        0,
        0,
        1,
        2.220446049250313e-16,
        0,
        0,
        -4,
        0,
        1
      ],
      "name": "ground",
      "mesh": 0
    }
  ],
  "bufferViews": [
    {
      "buffer": 0,
      "byteOffset": 0,
      "byteLength": 48,
      "target": 34962,
      "byteStride": 12
    },
    {
      "buffer": 0,
      "byteOffset": 48,
      "byteLength": 48,
      "target": 34962,
      "byteStride": 12
    },
    {
      "buffer": 0,
      "byteOffset": 96,
      "byteLength": 32,
      "target": 34962,
      "byteStride": 8
    },
    {
      "buffer": 0,
      "byteOffset": 128,
      "byteLength": 12,
      "target": 34963
    }
  ],
  "buffers": [
    {
      "byteLength": 140,
      "uri": "data:application/octet-stream;base64,"
    }
  ],
  "accessors": [
    {
      "bufferView": 0,
      "componentType": 5126,
      "count": 4,
      "max": [
        5,
        5,
        0
      ],
      "min": [
        -5,
        -5,
        0
      ],
      "type": "VEC3"
    },
    {
      "bufferView": 1,
      "componentType": 5126,
      "count": 4,
      "max": [
        0,
        0,
        1
      ],
      "min": [
        0,
        0,
        1
      ],
      "type": "VEC3"
    },
    {
      "bufferView": 2,
      "componentType": 5126,
      "count": 4,
      "max": [
        1,
        1
      ],
      "min": [
        0,
        0
      ],
      "type": "VEC2"
    },
    {
      "bufferView": 3,
      "componentType": 5123,
      "count": 6,
      "max": [
        3
      ],
      "min": [
        0
      ],
      "type": "SCALAR"
    }
  ],
  "materials": [
    {
      "pbrMetallicRoughness": {
        "metallicFactor": 0.5,
        "roughnessFactor": 0.5,
        "metallicRoughnessTexture": {
          "index": 2,
          "extensions": {
            "KHR_texture_transform": {
              "scale": [
                4,
                4
              ]
            }
          }
        },
        "baseColorTexture": {
          "index": 0,
          "extensions": {
            "KHR_texture_transform": {
              "scale": [
                4,
                4
              ]
            }
          }
        }
      },
      "normalTexture": {
        "index": 1,
        "scale": 1,
        "extensions": {
          "KHR_texture_transform": {
            "scale": [
              4,
              4
            ]
          }
        }
      },
      "occlusionTexture": {
        "index": 2,
        "texCoord": 1,
        "extensions": {
          "KHR_texture_transform": {
            "scale": [
              4,
              4
            ]
          }
        }
      },
      "doubleSided": true
    }
  ],
  "textures": [
    {
      "sampler": 0,
      "source": 0,
      "name": "assets/textures/notOpen/marbleFloor1/marbleFloor1_basecolor.jpg",
      "extensions": {
        "GOOGLE_texture_basis": {
          "source": 0
        }
      }
    },
    {
      "sampler": 1,
      "source": 1,
      "name": "assets/textures/notOpen/marbleFloor1/marbleFloor1_n.jpg",
      "extensions": {
        "GOOGLE_texture_basis": {
          "source": 1
        }
      }
    },
    {
      "sampler": 2,
      "source": 2,
      "name": "assets/textures/notOpen/marbleFloor1/aorm.jpg",
      "extensions": {
        "GOOGLE_texture_basis": {
          "source": 2
        }
      }
    }
  ],
  "samplers": [
    {
      "magFilter": 9729,
      "minFilter": 9987,
      "wrapS": 10497,
      "wrapT": 10497
    },
    {
      "magFilter": 9729,
      "minFilter": 9987,
      "wrapS": 10497,
      "wrapT": 10497
    },
    {
      "magFilter": 9729,
      "minFilter": 9987,
      "wrapS": 10497,
      "wrapT": 10497
    }
  ],
  "images": [
    {
      "mimeType": "image/basis",
      "uri": "../textures/notOpen/marbleFloor1/marbleFloor1_basecolor.basis"
    },
    {
      "mimeType": "image/basis",
      "uri": "../textures/notOpen/marbleFloor1/marbleFloor1_normal.basis"
    },
    {
      "mimeType": "image/basis",
      "uri": "../textures/notOpen/marbleFloor1/marbleFloor1_aorm.basis"
    }
  ],
  "meshes": [
    {
      "primitives": [
        {
          "mode": 4,
          "attributes": {
            "POSITION": 0,
            "NORMAL": 1,
            "TEXCOORD_0": 2
          },
          "indices": 3,
          "material": 0
        }
      ]
    }
  ],
  "extensionsUsed": [
    "GOOGLE_texture_basis",
    "KHR_texture_transform"
  ],
  "extensionsRequired": [
    "GOOGLE_texture_basis"
  ]
}